<svg xmlns="http://www.w3.org/2000/svg" viewBox="0 0 640 360" role="img" aria-labelledby="title desc">
  <title id="title">Coming soon</title>
  <desc id="desc">Coming soon announcement sign</desc>
  <defs>
    <linearGradient id="sun" x2="0" y2="1"><stop stop-color="#ffc21a"/><stop offset="1" stop-color="#f5a900"/></linearGradient>
    <filter id="shadow" x="-20%" y="-20%" width="140%" height="150%"><feDropShadow dx="0" dy="8" stdDeviation="7" flood-opacity=".3"/></filter>
  </defs>
  <rect width="640" height="360" fill="url(#sun)"/>
  <path d="M145 75h410c18 0 32 14 32 32v151c0 18-14 32-32 32H194l-34 35-9-35h-6c-18 0-32-14-32-32V107c0-18 14-32 32-32z" fill="#fff" stroke="#f7f7f7" stroke-width="7" filter="url(#shadow)"/>
  <path d="M168 98h362c12 0 22 10 22 22v125c0 12-10 22-22 22H168c-12 0-22-10-22-22V120c0-12 10-22 22-22z" fill="#fff" stroke="#f1b20e" stroke-width="7"/>
  <path d="M132 106c10-33 32-53 57-53 18 0 32 11 37 28 7 23-4 45-29 61l-17-20c14-10 18-20 14-30-3-8-9-11-16-10-10 2-17 13-20 31z" fill="#fff" stroke="#fff" stroke-width="8"/>
  <path d="M174 108l38 20-15 28-38-21z" fill="#f7b20e"/>
  <text x="355" y="163" text-anchor="middle" font-family="Arial, Helvetica, sans-serif" font-size="51" font-weight="900" fill="#20242b">COMING</text>
  <text x="355" y="220" text-anchor="middle" font-family="Arial, Helvetica, sans-serif" font-size="58" font-weight="900" fill="#20242b">SOON</text>
</svg>
